<svg width="101" height="100" viewBox="0 0 101 100" fill="none" xmlns="http://www.w3.org/2000/svg">
<path fill-rule="evenodd" clip-rule="evenodd" d="M16.9167 49.9997C16.9173 43.5849 18.7688 37.3065 22.2491 31.9179C25.7294 26.5293 30.6907 22.2594 36.5375 19.6206C42.3844 16.9817 48.8685 16.0859 55.2118 17.0408C61.5551 17.9957 67.4882 20.7606 72.2991 25.0038C77.11 29.247 80.5943 34.7883 82.3341 40.9626C84.0738 47.137 83.995 53.6822 82.1071 59.8129C80.2192 65.9436 76.6024 71.3993 71.6907 75.5254C66.7791 79.6516 60.7811 82.2728 54.4167 83.0747V58.333H62.75C63.8551 58.333 64.9149 57.894 65.6963 57.1126C66.4777 56.3312 66.9167 55.2714 66.9167 54.1663C66.9167 53.0613 66.4777 52.0015 65.6963 51.2201C64.9149 50.4387 63.8551 49.9997 62.75 49.9997H54.4167V41.6663C54.4167 40.5613 54.8557 39.5015 55.6371 38.7201C56.4185 37.9387 57.4783 37.4997 58.5833 37.4997H60.6667C61.7717 37.4997 62.8316 37.0607 63.613 36.2793C64.3944 35.4979 64.8333 34.4381 64.8333 33.333C64.8333 32.2279 64.3944 31.1681 63.613 30.3867C62.8316 29.6053 61.7717 29.1663 60.6667 29.1663H58.5833C55.2681 29.1663 52.0887 30.4833 49.7445 32.8275C47.4003 35.1717 46.0833 38.3511 46.0833 41.6663V49.9997H37.75C36.6449 49.9997 35.5851 50.4387 34.8037 51.2201C34.0223 52.0015 33.5833 53.0613 33.5833 54.1663C33.5833 55.2714 34.0223 56.3312 34.8037 57.1126C35.5851 57.894 36.6449 58.333 37.75 58.333H46.0833V83.0747C38.0276 82.0597 30.6192 78.1394 25.249 72.0495C19.8787 65.9597 16.9159 58.1191 16.9167 49.9997ZM50.25 91.6663C73.2625 91.6663 91.9167 73.0122 91.9167 49.9997C91.9167 26.9872 73.2625 8.33301 50.25 8.33301C27.2375 8.33301 8.58334 26.9872 8.58334 49.9997C8.58334 73.0122 27.2375 91.6663 50.25 91.6663Z" fill="#382D23"/>
</svg>
