<svg width="75" height="76" viewBox="0 0 75 76" fill="none" xmlns="http://www.w3.org/2000/svg">
<path d="M62.5 0.5C65.8152 0.5 68.9946 1.81696 71.3388 4.16117C73.683 6.50537 75 9.68479 75 13V63C75 66.3152 73.683 69.4946 71.3388 71.8388C68.9946 74.183 65.8152 75.5 62.5 75.5H12.5C9.18479 75.5 6.00537 74.183 3.66117 71.8388C1.31696 69.4946 0 66.3152 0 63V13C0 9.68479 1.31696 6.50537 3.66117 4.16117C6.00537 1.81696 9.18479 0.5 12.5 0.5H62.5ZM62.5 8.83333H12.5C11.3949 8.83333 10.3351 9.27232 9.55372 10.0537C8.77232 10.8351 8.33333 11.8949 8.33333 13V63C8.33333 64.1051 8.77232 65.1649 9.55372 65.9463C10.3351 66.7277 11.3949 67.1667 12.5 67.1667H62.5C63.6051 67.1667 64.6649 66.7277 65.4463 65.9463C66.2277 65.1649 66.6667 64.1051 66.6667 63V13C66.6667 11.8949 66.2277 10.8351 65.4463 10.0537C64.6649 9.27232 63.6051 8.83333 62.5 8.83333ZM20.8333 29.6667C21.8539 29.6668 22.8389 30.0415 23.6016 30.7196C24.3642 31.3978 24.8514 32.3323 24.9708 33.3458L25 33.8333V54.6667C24.9988 55.7287 24.5922 56.7501 23.8631 57.5224C23.1341 58.2946 22.1377 58.7593 21.0775 58.8215C20.0173 58.8838 18.9734 58.5389 18.159 57.8572C17.3446 57.1756 16.8213 56.2087 16.6958 55.1542L16.6667 54.6667V33.8333C16.6667 32.7283 17.1057 31.6685 17.8871 30.8871C18.6685 30.1057 19.7283 29.6667 20.8333 29.6667ZM33.3333 25.5C34.3091 25.4999 35.2541 25.8422 36.0033 26.4673C36.7526 27.0925 37.2587 27.9608 37.4333 28.9208C38.2726 28.4362 39.1393 28.0007 40.0292 27.6167C42.8083 26.4292 46.9708 25.775 50.7292 26.9542C52.7 27.5792 54.6792 28.7458 56.1458 30.7333C57.4583 32.5042 58.1667 34.6583 58.3083 37.0792L58.3333 38V54.6667C58.3322 55.7287 57.9255 56.7501 57.1965 57.5224C56.4674 58.2946 55.471 58.7593 54.4109 58.8215C53.3507 58.8838 52.3068 58.5389 51.4924 57.8572C50.678 57.1756 50.1546 56.2087 50.0292 55.1542L50 54.6667V38C50 36.625 49.6667 35.9833 49.45 35.6875C49.1386 35.3011 48.7102 35.0262 48.2292 34.9042C46.7792 34.4458 44.6917 34.6875 43.3042 35.2792C41.2208 36.1708 39.3125 37.5708 38.0125 38.8667L37.5 39.4167V54.6667C37.4988 55.7287 37.0922 56.7501 36.3631 57.5224C35.6341 58.2946 34.6377 58.7593 33.5775 58.8215C32.5173 58.8838 31.4734 58.5389 30.659 57.8572C29.8446 57.1756 29.3213 56.2087 29.1958 55.1542L29.1667 54.6667V29.6667C29.1667 28.5616 29.6057 27.5018 30.3871 26.7204C31.1685 25.939 32.2283 25.5 33.3333 25.5ZM20.8333 17.1667C21.9384 17.1667 22.9982 17.6057 23.7796 18.3871C24.561 19.1685 25 20.2283 25 21.3333C25 22.4384 24.561 23.4982 23.7796 24.2796C22.9982 25.061 21.9384 25.5 20.8333 25.5C19.7283 25.5 18.6685 25.061 17.8871 24.2796C17.1057 23.4982 16.6667 22.4384 16.6667 21.3333C16.6667 20.2283 17.1057 19.1685 17.8871 18.3871C18.6685 17.6057 19.7283 17.1667 20.8333 17.1667Z" fill="#382D23"/>
</svg>
