<svg width="83" height="82" viewBox="0 0 83 82" fill="none" xmlns="http://www.w3.org/2000/svg">
<path d="M4 36.8333C4 21.1208 4 13.2625 8.88333 8.38333C13.7625 3.5 21.6208 3.5 37.3333 3.5H45.6667C61.3792 3.5 69.2375 3.5 74.1167 8.38333C79 13.2625 79 21.1208 79 36.8333V45.1667C79 60.8792 79 68.7375 74.1167 73.6167C69.2375 78.5 61.3792 78.5 45.6667 78.5H37.3333C21.6208 78.5 13.7625 78.5 8.88333 73.6167C4 68.7375 4 60.8792 4 45.1667V36.8333Z" stroke="#382D23" stroke-width="6.66667"/>
<path d="M60.25 28.5C63.7018 28.5 66.5 25.7018 66.5 22.25C66.5 18.7982 63.7018 16 60.25 16C56.7982 16 54 18.7982 54 22.25C54 25.7018 56.7982 28.5 60.25 28.5Z" fill="#382D23"/>
<path d="M41.5 53.5C48.4036 53.5 54 47.9036 54 41C54 34.0964 48.4036 28.5 41.5 28.5C34.5964 28.5 29 34.0964 29 41C29 47.9036 34.5964 53.5 41.5 53.5Z" stroke="#382D23" stroke-width="6.66667"/>
</svg>
